<svg width="24" height="24" viewBox="0 0 24 24" fill="none" xmlns="http://www.w3.org/2000/svg">
  <path d="M23.0557 9.00204C23.0594 9.06807 23.0545 9.13527 23.0379 9.20202L21.5576 15.1235C21.4829 15.4218 21.2156 15.6316 20.9082 15.6332L12.0259 15.6781C12.0248 15.6781 12.0237 15.6781 12.0225 15.6781H3.14019C2.83119 15.6781 2.56194 15.4676 2.4873 15.1677L1.00692 9.22382C0.989877 9.15528 0.984942 9.0862 0.989249 9.01846C0.416568 8.83803 0 8.30214 0 7.6706C0 6.89138 0.633869 6.25751 1.41308 6.25751C2.1923 6.25751 2.82617 6.89138 2.82617 7.6706C2.82617 8.10942 2.62511 8.50203 2.31028 8.76141L4.16371 10.6288C4.63213 11.1008 5.28215 11.3714 5.94715 11.3714C6.73346 11.3714 7.48315 10.998 7.95526 10.3724L11.0012 6.33647C10.7454 6.08077 10.5869 5.72745 10.5869 5.33789C10.5869 4.55867 11.2208 3.9248 12 3.9248C12.7792 3.9248 13.4131 4.55867 13.4131 5.33789C13.4131 5.71579 13.2631 6.05879 13.0206 6.3126C13.0214 6.31368 13.0224 6.31458 13.0232 6.31574L16.0471 10.3628C16.519 10.9944 17.2714 11.3715 18.0599 11.3715C18.731 11.3715 19.3621 11.1102 19.8366 10.6356L21.7017 8.77047C21.3803 8.51118 21.1738 8.1148 21.1738 7.6706C21.1738 6.89138 21.8077 6.25751 22.5869 6.25751C23.3661 6.25751 24 6.89138 24 7.6706C24 8.28527 23.6048 8.80806 23.0557 9.00204ZM21.4131 17.7865C21.4131 17.4149 21.1118 17.1136 20.7402 17.1136H3.33461C2.96299 17.1136 2.66171 17.4149 2.66171 17.7865V19.4014C2.66171 19.7731 2.96299 20.0743 3.33461 20.0743H20.7402C21.1118 20.0743 21.4131 19.7731 21.4131 19.4014V17.7865Z" fill="#1C2520" />
</svg>